<?xml version="1.0" encoding="UTF-8"?>
<svg id="Layer_2" data-name="Layer 2" xmlns="http://www.w3.org/2000/svg" viewBox="0 0 558.8 450.28">
  <defs>
    <style>
      .cls-1 {
        fill: #202020;
      }

      .cls-2 {
        fill: #de5a15;
      }
    </style>
  </defs>
  <g id="OBJECTS">
    <g>
      <polygon class="cls-2" points="52.81 355.67 52.81 367.8 14.31 367.8 14.31 375.3 50.88 375.3 50.88 386.67 14.31 386.67 14.31 394.86 53.09 394.86 53.09 407.23 0 407.23 0 355.67 52.81 355.67"/>
      <polygon class="cls-2" points="86.73 355.67 111.7 394.09 113.2 394.09 112.85 355.67 127.66 355.67 127.66 407.23 102.4 407.23 77.28 368.73 75.71 368.73 76.07 407.23 61.25 407.23 61.25 355.67 86.73 355.67"/>
      <path class="cls-2" d="M200.08,378.01v1.39c0,5.1-.29,13.92-.5,16.39-.57,6.03-3.65,9.59-9.37,10.82-4.87,1.08-9.87,1.39-22.83,1.39-16.39,0-21.47-.7-25.47-3.63-4.22-3.02-5.01-6.8-5.01-23.73,0-24.12,2.08-25.74,32.99-25.74,17.75,0,24.33,1.24,27.48,5.33,2,2.55,2.58,5.72,2.65,13.3h-14.53c-.07-3.01-.21-3.63-1.14-4.33-1.43-1.08-4.79-1.39-15.67-1.39-17.17,0-17.25.08-17.25,13.45,0,8.74.43,11.36,2,12.76,1.22,1.08,2.5,1.31,6.58,1.47l8.52.15c16.96,0,17.39-.15,17.39-5.88v-1.47h-19.11v-10.28h33.27Z"/>
      <rect class="cls-2" x="209.45" y="355.67" width="15.24" height="51.57"/>
      <polygon class="cls-2" points="260.47 355.67 285.45 394.09 286.95 394.09 286.59 355.67 301.4 355.67 301.4 407.23 276.14 407.23 251.03 368.73 249.45 368.73 249.81 407.23 235 407.23 235 355.67 260.47 355.67"/>
      <polygon class="cls-2" points="364.45 355.67 364.45 367.8 325.95 367.8 325.95 375.3 362.51 375.3 362.51 386.67 325.95 386.67 325.95 394.86 364.73 394.86 364.73 407.23 311.64 407.23 311.64 355.67 364.45 355.67"/>
      <polygon class="cls-2" points="425.7 355.67 425.7 367.8 387.2 367.8 387.2 375.3 423.77 375.3 423.77 386.67 387.2 386.67 387.2 394.86 425.99 394.86 425.99 407.23 372.89 407.23 372.89 355.67 425.7 355.67"/>
      <path class="cls-2" d="M434.15,355.67h35.13q16.46,0,19.53,2.01c3.65,2.4,4.72,5.8,4.72,14.77,0,7.65-.72,10.59-3.29,12.68-1.36,1.16-2.72,1.7-5.58,2.16,7.37.93,8.66,3.25,8.37,15.15v4.79h-14.31v-2.71c0-5.8-.29-7.65-1.43-8.97-1-1.24-2.08-1.39-8.09-1.39h-20.54v13.07h-14.53v-51.57ZM469.14,381.25q7.3-.15,8.3-.93c1.14-.77,1.57-2.32,1.57-5.57,0-3.48-.57-4.95-2.08-5.64-1-.46-1.22-.46-7.8-.54h-20.47v12.68h20.47Z"/>
      <path class="cls-2" d="M514.5,390.15c0,3.09.29,4.1,1.43,4.87,1.36.93,2.93,1.08,13.17,1.08q15.6,0,15.6-4.56c0-3.09-1.07-3.87-5.72-3.94l-11.45-.46-7.73-.39-3.86-.15c-11.81-.39-15.1-3.63-15.1-15,0-9.82,2.58-14.22,9.16-15.77,2.79-.62,9.37-.93,20.82-.93,13.88,0,18.89.7,22.25,3.17,2.86,2.09,4.01,5.33,4.01,11.44,0,.31,0,1.39-.07,2.4h-14.02c-.14-2.86-.36-3.56-1.43-4.25-1.22-.77-3.01-.93-13.31-.93-12.31,0-13.31.31-13.31,4.1,0,1.93.64,2.94,2.15,3.32,1.29.39,5.22.62,15.31.93,15.74.54,18.82.93,21.9,3.02,3.29,2.32,4.51,5.8,4.51,12.99,0,8.97-2,13.37-6.94,15.38-2.86,1.16-8.87,1.55-23.11,1.55s-20.61-.7-23.97-3.01c-3.29-2.24-4.37-5.26-4.37-12.37v-2.47h14.1Z"/>
      <polygon class="cls-1" points="90.98 425.12 90.98 430.96 70.99 430.96 70.99 434.56 89.98 434.56 89.98 440.02 70.99 440.02 70.99 443.96 91.13 443.96 91.13 449.91 63.56 449.91 63.56 425.12 90.98 425.12"/>
      <polygon class="cls-1" points="121.59 425.12 134.56 443.59 135.34 443.59 135.15 425.12 142.84 425.12 142.84 449.91 129.73 449.91 116.69 431.4 115.87 431.4 116.06 449.91 108.37 449.91 108.37 425.12 121.59 425.12"/>
      <polygon class="cls-1" points="189.4 425.12 189.4 431.44 178.36 431.44 178.36 449.91 170.45 449.91 170.45 431.44 159.41 431.44 159.41 425.12 189.4 425.12"/>
      <polygon class="cls-1" points="233.42 425.12 233.42 430.96 213.43 430.96 213.43 434.56 232.42 434.56 232.42 440.02 213.43 440.02 213.43 443.96 233.57 443.96 233.57 449.91 206 449.91 206 425.12 233.42 425.12"/>
      <path class="cls-1" d="M250.81,425.12h18.24q8.55,0,10.14.97c1.89,1.15,2.45,2.79,2.45,7.1,0,3.68-.37,5.09-1.71,6.09-.71.56-1.41.82-2.9,1.04,3.83.45,4.5,1.56,4.35,7.28v2.3h-7.43v-1.3c0-2.79-.15-3.68-.74-4.31-.52-.59-1.08-.67-4.2-.67h-10.66v6.28h-7.54v-24.78ZM268.98,437.42q3.79-.07,4.31-.45c.59-.37.82-1.12.82-2.68,0-1.67-.3-2.38-1.08-2.71-.52-.22-.63-.22-4.05-.26h-10.63v6.09h10.63Z"/>
      <path class="cls-1" d="M299.11,425.13h16.98c4.68,0,5.35.04,6.72.22,4.68.71,6.02,2.71,6.02,9.07,0,5.5-1,7.65-3.98,8.73-1.67.56-3.34.71-8.69.71h-9.51v6.06h-7.54v-24.78ZM316.09,437.65c3.49-.04,3.64-.04,4.27-.41.71-.45.93-1.11.93-2.82s-.33-2.53-1.3-2.86c-.52-.19-.59-.19-3.9-.22h-9.44v6.32h9.44Z"/>
      <path class="cls-1" d="M346.18,425.12h18.24q8.55,0,10.14.97c1.89,1.15,2.45,2.79,2.45,7.1,0,3.68-.37,5.09-1.71,6.09-.71.56-1.41.82-2.9,1.04,3.83.45,4.5,1.56,4.35,7.28v2.3h-7.43v-1.3c0-2.79-.15-3.68-.74-4.31-.52-.59-1.08-.67-4.2-.67h-10.66v6.28h-7.54v-24.78ZM364.35,437.42q3.79-.07,4.31-.45c.59-.37.82-1.12.82-2.68,0-1.67-.3-2.38-1.08-2.71-.52-.22-.63-.22-4.05-.26h-10.63v6.09h10.63Z"/>
      <rect class="cls-1" x="394.48" y="425.13" width="7.91" height="24.78"/>
      <path class="cls-1" d="M427.17,441.7c0,1.49.15,1.97.74,2.34.71.45,1.52.52,6.84.52q8.1,0,8.1-2.19c0-1.49-.56-1.86-2.97-1.89l-5.94-.22-4.01-.19-2.01-.07c-6.13-.19-7.84-1.75-7.84-7.21,0-4.72,1.34-6.84,4.76-7.58,1.45-.3,4.87-.45,10.81-.45,7.21,0,9.81.33,11.55,1.52,1.49,1,2.08,2.56,2.08,5.5,0,.15,0,.67-.04,1.15h-7.28c-.07-1.37-.19-1.71-.74-2.04-.63-.37-1.56-.45-6.91-.45-6.39,0-6.91.15-6.91,1.97,0,.93.33,1.41,1.11,1.6.67.19,2.71.3,7.95.45,8.17.26,9.77.45,11.37,1.45,1.71,1.11,2.34,2.79,2.34,6.24,0,4.31-1.04,6.43-3.6,7.39-1.49.56-4.61.74-12,.74s-10.7-.33-12.45-1.45c-1.71-1.08-2.27-2.53-2.27-5.94v-1.19h7.32Z"/>
      <polygon class="cls-1" points="495.09 425.12 495.09 430.96 475.1 430.96 475.1 434.56 494.09 434.56 494.09 440.02 475.1 440.02 475.1 443.96 495.24 443.96 495.24 449.91 467.67 449.91 467.67 425.12 495.09 425.12"/>
      <path class="cls-1" d="M263.38,280.67c-2.44,1.31-1.55,3.2-.5,4.83,1.91,2.96,2.57,6.3,3.5,9.6.56,1.97-.53,5.6,3.74,4.85,3.61-.63,3.92-3.67,4.76-6.19-.77-5.05-4.86-7.82-7.21-11.67-1.06-1.73-2.45-2.42-4.3-1.42"/>
      <path class="cls-2" d="M153.01,295.19c8.46,2.62,17.14,3.66,25.89,4.29,8.39.6,8.56-.11,5.45-7.93-9.74-24.52-10.2-47.91,9.31-68.52,1.34-.14,2.09-1.03,2.68-2.12.63-.38,1.26-.75,1.89-1.13.61-.37,1.23-.74,1.84-1.11.64-.22,1.28-.45,1.93-.67,3.31-1.08,6.63-2.16,9.94-3.24,1.25-.21,2.5-.42,3.75-.63.4-.05.8-.1,1.19-.15,2.45.01,4.9.03,7.36.04,10.26,2.17,19.66,5.98,26.52,14.38,1.8,2.2,3.34,4.62,5.06,6.89.79,1.04,1.95,1.3,3.01.49.96-.73.53-1.77.02-2.58-4.77-7.59-9.82-14.93-17.84-19.57,0,0-.04.04-.04.04-.48-.39-.96-.78-1.43-1.17,0,0-.36-.14-.36-.14-.64-1.13-1.47-2.03-2.85-2.18-.51-1.11-1.45-1.61-2.6-1.81l-.19-.13c-1.59-1.43-3.35-2.52-5.51-2.83-4.06-2.13-8.28-3.96-12.77-4.85-40.82-8.14-78.5,18.55-84.36,59.67-2.51,17.62,5.23,29.71,22.09,34.94"/>
      <path class="cls-2" d="M194.3,305.17c-13.96,1.13-27.88.47-41.5-2.93-13.26-3.3-24.74-9.14-29.14-23.55-.93-3.05-2.93-3.04-5.39-2.09-4.23,1.64-7.32,4.76-10.31,7.97-7.92,8.51-7.99,18.9.41,26.92,14.55,13.89,32.72,17.78,51.17,17.89,9.14-.43,17.32-.81,25.44-2.13,14.72-2.4,14.56-2.32,14.6-17.4.01-4.3-1.43-5-5.3-4.68"/>
      <path class="cls-2" d="M268.65,308.08c-.11-.73-1.19-1.81-1.89-1.87-3.98-.36-3.47-3.05-3.48-5.79-.02-5.45-1.51-10.47-4.6-15.08-1.86-2.78-6.48-4.83-2.88-9.56.76-1-1.32-2.03-2.42-2.7-18.92-11.46-43.63-.15-47.17,21.63-1.73,10.61-.48,21.32-.78,31.98-.11,3.82,2.21,5.22,5.9,5.18,9.54-.1,19.09-.03,28.63-.03v.06c8.78,0,17.6-.55,26.33.14,10.45.83,10.54-5.33,7.75-12.72-1.46-3.87-4.74-6.9-5.38-11.24M236.87,320.74c-11.4,0-20.3-8.81-20.36-20.18-.06-11.87,9.14-21.15,20.88-21.07,11.23.08,20.51,9.62,20.44,21.01-.08,11.52-9.09,20.22-20.95,20.23"/>
      <path class="cls-1" d="M238.84,233.48c1.16.47,2.19.53,3.72-.91-10.1-8.31-21.26-9.79-32.92-5.55-19.54,7.12-22.57,30.1-20.12,45.28.18,1.09.6,2.47,2.07,2.23,1.36-.22,1.48-1.58,1.51-2.73.14-4.96.68-9.87,1.88-14.7,5.27-21.21,22.5-32.18,43.85-23.63"/>
      <path class="cls-1" d="M237.15,284.8c-8.74-.03-15.87,6.99-15.79,15.55.08,8.25,7.11,15.4,15.33,15.57,8.62.18,15.84-6.8,15.93-15.4.1-8.81-6.67-15.69-15.47-15.72"/>
      <path class="cls-1" d="M224.78,194.48l-.07-.19.89.51c1.7.69,3.46,1.5,5.31,2.44,2.45.59,4.74,1.72,6.93,3.41,1.38.54,2.6,1.31,3.64,2.27,1.3.68,2.62,1.7,3.81,3.19l.32.26c.1.06.2.13.31.19v-13.09l24.29-23.15h-47.51l-20.36,20.22c4.86.1,9.77.64,14.61,1.61,2.55.51,5.12,1.27,7.83,2.32"/>
      <polygon class="cls-2" points="223.62 116.54 223.62 155.26 235.5 155.72 235.5 121.41 282.7 90.95 282.7 331.75 304.93 331.75 304.93 155.26 334.17 142.32 334.17 101.61 292.07 72.07 223.62 116.54"/>
      <polygon class="cls-1" points="344.37 138.66 344.37 159.45 401.93 190.97 401.93 172.24 344.37 138.66"/>
      <polygon class="cls-1" points="302.5 20.1 354.57 56.34 354.57 129.99 367.06 137.28 367.06 50.86 292.07 0 265.65 25.28 265.65 72.07 302.5 50.75 302.5 20.1"/>
      <polygon class="cls-1" points="344.37 189.67 401.93 221.19 401.93 202.46 344.37 168.89 344.37 189.67"/>
      <polygon class="cls-1" points="344.37 219.89 401.93 251.42 401.93 232.69 344.37 199.11 344.37 219.89"/>
      <polygon class="cls-1" points="344.37 250.12 401.93 281.64 401.93 262.91 344.37 229.33 344.37 250.12"/>
      <polygon class="cls-1" points="344.37 280.34 401.93 311.86 401.93 293.13 344.37 259.56 344.37 280.34"/>
      <polygon class="cls-1" points="344.37 310.57 344.37 329.39 378.75 329.39 401.93 329.39 401.93 323.36 344.37 289.78 344.37 310.57"/>
    </g>
  </g>
</svg>